<?xml version="1.0" encoding="UTF-8"?>
<svg version="1.1" xmlns="http://www.w3.org/2000/svg" width="499" height="178">
<path d="M0 0 C164.67 0 329.34 0 499 0 C499 58.74 499 117.48 499 178 C334.33 178 169.66 178 0 178 C0 119.26 0 60.52 0 0 Z " fill="#FDFDFD" transform="translate(0,0)"/>
<path d="M0 0 C12.61617873 10.06198304 21.66911064 23.64420851 24.22998047 39.71582031 C25.96760066 59.03722628 23.18805666 75.35187291 10.78857422 90.74707031 C0.61713565 102.67436985 -13.85031093 112.07836457 -29.77001953 113.71582031 C-48.28197528 114.85785141 -65.34238687 111.03280375 -79.80908203 98.78442383 C-90.99448563 88.64406675 -99.62677314 73.65944062 -100.97485352 58.39672852 C-101.71302815 39.81463789 -98.57839645 23.2759658 -86.02001953 8.84082031 C-78.10619392 0.69951711 -69.38906167 -5.26204608 -58.77001953 -9.28417969 C-57.94373047 -9.60386719 -57.11744141 -9.92355469 -56.26611328 -10.25292969 C-37.41002444 -16.47112082 -15.80596958 -11.46750345 0 0 Z " fill="#4A8EFA" transform="translate(125.77001953125,43.2841796875)"/>
<path d="M0 0 C1.18013672 -0.01998047 2.36027344 -0.03996094 3.57617188 -0.06054688 C5.28450195 -0.05958008 5.28450195 -0.05958008 7.02734375 -0.05859375 C8.0649585 -0.06044678 9.10257324 -0.0622998 10.17163086 -0.06420898 C14.68631485 0.71931231 16.89734394 3.1168731 19.85009766 6.46362305 C21.78777694 11.21651699 21.48934228 15.9373131 21.4609375 21.01953125 C21.46380768 22.14767746 21.46667786 23.27582367 21.46963501 24.43815613 C21.47167449 26.82278953 21.46615281 29.20743971 21.45361328 31.59204102 C21.4376037 35.22645919 21.45344365 38.85975768 21.47265625 42.49414062 C21.47067292 44.81510661 21.46682739 47.13607189 21.4609375 49.45703125 C21.47004654 51.0777227 21.47004654 51.0777227 21.4793396 52.7311554 C21.4215176 58.99449685 20.79332174 63.76519313 18.0625 69.4375 C12.55066373 73.93399801 5.91255084 73.64317314 -0.875 73.6875 C-1.66068359 73.708125 -2.44636719 73.72875 -3.25585938 73.75 C-8.24558266 73.78340401 -11.60877186 73.1855865 -15.9375 70.4375 C-20.25932566 65.88206214 -21.04727244 62.42969807 -21.11450195 56.30517578 C-21.12733719 55.28376495 -21.14017242 54.26235413 -21.15339661 53.20999146 C-21.16078354 52.1120224 -21.16817047 51.01405334 -21.17578125 49.8828125 C-21.183853 48.748508 -21.19192474 47.61420349 -21.20024109 46.44552612 C-21.21406483 44.04654461 -21.22479462 41.64754358 -21.23266602 39.24853516 C-21.24990228 35.58328055 -21.29380798 31.91892257 -21.33789062 28.25390625 C-21.34801593 25.92188162 -21.35653254 23.58984934 -21.36328125 21.2578125 C-21.38078934 20.16389191 -21.39829742 19.06997131 -21.41633606 17.94290161 C-21.39925031 11.94089262 -21.15618465 8.08375092 -16.9375 3.4375 C-12.23315552 -1.18380868 -6.19732244 -0.03710972 0 0 Z " fill="#313235" transform="translate(250.9375,62.5625)"/>
<path d="M0 0 C33.47179021 0 33.47179021 0 39.52929688 5.15063477 C41.49613804 8.96122627 41.57439433 12.39859223 41.53125 16.58984375 C41.5350769 17.41198868 41.53890381 18.23413361 41.54284668 19.08119202 C41.54556124 20.81512684 41.53823194 22.54910292 41.52148438 24.28295898 C41.50009385 26.92590456 41.52128544 29.56612366 41.546875 32.20898438 C41.5442311 33.89844346 41.53910485 35.58790086 41.53125 37.27734375 C41.53934692 38.06189438 41.54744385 38.84644501 41.55578613 39.6547699 C41.46716576 44.88538942 40.40002883 47.81794863 37 52 C30.82500476 57.77660845 21.86360928 56.07349168 14 56 C14.00523682 56.81267334 14.01047363 57.62534668 14.01586914 58.46264648 C14.03656994 62.12092322 14.04963803 65.77918767 14.0625 69.4375 C14.07087891 70.71689453 14.07925781 71.99628906 14.08789062 73.31445312 C14.09111328 74.52939453 14.09433594 75.74433594 14.09765625 76.99609375 C14.10289307 78.12200928 14.10812988 79.2479248 14.11352539 80.40795898 C14 83 14 83 13 84 C8.71 84 4.42 84 0 84 C0 56.28 0 28.56 0 0 Z " fill="#333437" transform="translate(178,52)"/>
<path d="M0 0 C0.33 8.91 0.66 17.82 1 27 C4.84873714 21.22689429 8.44835208 15.61935585 11.75 9.5625 C15.73566398 2.26433602 15.73566398 2.26433602 18 0 C20.8203125 -0.1953125 20.8203125 -0.1953125 24.125 -0.125 C25.22070312 -0.10695312 26.31640625 -0.08890625 27.4453125 -0.0703125 C28.70988281 -0.03550781 28.70988281 -0.03550781 30 0 C31.00134367 3.16200564 31.16680968 4.60382255 29.86010742 7.70727539 C29.28107666 8.66110107 28.7020459 9.61492676 28.10546875 10.59765625 C27.16670898 12.17063477 27.16670898 12.17063477 26.20898438 13.77539062 C25.54189453 14.86013672 24.87480469 15.94488281 24.1875 17.0625 C22.88862354 19.21963112 21.59041847 21.37716669 20.29296875 23.53515625 C19.41934692 24.96420288 19.41934692 24.96420288 18.52807617 26.42211914 C15.84098339 30.5710644 15.84098339 30.5710644 15.12109375 35.26171875 C16.33325301 39.03826826 18.15205918 42.34681004 20.0625 45.8125 C20.87494255 47.32094489 21.68610868 48.83007785 22.49609375 50.33984375 C22.90972168 51.10796387 23.32334961 51.87608398 23.74951172 52.66748047 C25.74293975 56.38579585 27.70001793 60.12082983 29.625 63.875 C29.97957275 64.54635986 30.33414551 65.21771973 30.69946289 65.90942383 C31.54407975 67.5689431 32.28172399 69.28201821 33 71 C32.505 72.485 32.505 72.485 32 74 C27.38 74 22.76 74 18 74 C16.75283203 71.56173828 16.75283203 71.56173828 15.48046875 69.07421875 C14.38311161 66.94515831 13.28543893 64.81626048 12.1875 62.6875 C11.36668945 61.0797168 11.36668945 61.0797168 10.52929688 59.43945312 C9.99755859 58.41142578 9.46582031 57.38339844 8.91796875 56.32421875 C8.18743286 54.9024231 8.18743286 54.9024231 7.44213867 53.4519043 C6.13978913 51.23766756 4.91045364 49.69239927 3 48 C0.45552286 52.9035268 0.59462846 57.85397874 0.4375 63.25 C0.37783597 65.06784886 0.31425188 66.88557479 0.24609375 68.703125 C0.22216553 69.50395508 0.1982373 70.30478516 0.17358398 71.12988281 C0 73 0 73 -1 74 C-2.99799572 74.09873816 -4.99957158 74.12971799 -7 74.125 C-8.093125 74.12757813 -9.18625 74.13015625 -10.3125 74.1328125 C-13 74 -13 74 -14 73 C-14.09436529 70.76070114 -14.11742327 68.5183825 -14.11352539 66.27709961 C-14.11367142 65.5746965 -14.11381744 64.8722934 -14.1139679 64.14860535 C-14.11326872 61.81648722 -14.10547617 59.484448 -14.09765625 57.15234375 C-14.09579208 55.53951562 -14.09436818 53.92668693 -14.09336853 52.31385803 C-14.08954323 48.06084643 -14.07971285 43.80786876 -14.06866455 39.55487061 C-14.05845069 35.2182257 -14.05387096 30.88157533 -14.04882812 26.54492188 C-14.03809059 18.02993231 -14.02101403 9.51497037 -14 1 C-9.81537205 -1.09231398 -4.67855628 0 0 0 Z " fill="#333438" transform="translate(349,62)"/>
<path d="M0 0 C0.83587646 -0.00095673 1.67175293 -0.00191345 2.53295898 -0.00289917 C4.30159582 -0.00358018 6.07023515 -0.00173141 7.83886719 0.00244141 C10.55148921 0.00779079 13.26394565 0.00249375 15.9765625 -0.00390625 C17.6927087 -0.00324545 19.4088548 -0.00196426 21.125 0 C22.3469104 -0.00303635 22.3469104 -0.00303635 23.59350586 -0.00613403 C29.33258072 0.01785286 29.33258072 0.01785286 31.5625 1.1328125 C31.5625 5.4228125 31.5625 9.7128125 31.5625 14.1328125 C18.1975 14.6278125 18.1975 14.6278125 4.5625 15.1328125 C4.5625 20.0828125 4.5625 25.0328125 4.5625 30.1328125 C11.4925 30.4628125 18.4225 30.7928125 25.5625 31.1328125 C25.6875 42.8828125 25.6875 42.8828125 24.5625 45.1328125 C17.6325 45.1328125 10.7025 45.1328125 3.5625 45.1328125 C3.8925 50.0828125 4.2225 55.0328125 4.5625 60.1328125 C13.4725 60.1328125 22.3825 60.1328125 31.5625 60.1328125 C31.5625 64.7528125 31.5625 69.3728125 31.5625 74.1328125 C25.74178378 74.15745888 19.92109766 74.1756468 14.1003418 74.18774414 C12.11856559 74.19278517 10.13679311 74.19961788 8.1550293 74.20825195 C5.31297891 74.22032765 2.47097753 74.22604295 -0.37109375 74.23046875 C-1.70858925 74.23821068 -1.70858925 74.23821068 -3.07310486 74.24610901 C-5.19490601 74.24630427 -7.3166078 74.1949128 -9.4375 74.1328125 C-10.4375 73.1328125 -10.4375 73.1328125 -10.55775452 70.27915955 C-10.55553391 69.00230789 -10.55331329 67.72545624 -10.55102539 66.40991211 C-10.55117142 65.707509 -10.55131744 65.0051059 -10.5514679 64.28141785 C-10.55076872 61.94929972 -10.54297617 59.6172605 -10.53515625 57.28515625 C-10.53329208 55.67232812 -10.53186818 54.05949943 -10.53086853 52.44667053 C-10.52704323 48.19365893 -10.51721285 43.94068126 -10.50616455 39.68768311 C-10.49595069 35.3510382 -10.49137096 31.01438783 -10.48632812 26.67773438 C-10.47559059 18.16274481 -10.45851403 9.64778287 -10.4375 1.1328125 C-7.17636087 -0.49775707 -3.58270683 -0.00890273 0 0 Z " fill="#353539" transform="translate(399.4375,61.8671875)"/>
<path d="M0 0 C1.11117188 -0.03673828 2.22234375 -0.07347656 3.3671875 -0.11132812 C8.71224502 -0.13996236 12.57690549 -0.11378971 16.7890625 3.41015625 C19.13795826 5.7793584 21.46162337 8.1284748 21.85205078 11.55541992 C21.84157715 12.29381104 21.83110352 13.03220215 21.8203125 13.79296875 C21.81386719 14.59541016 21.80742187 15.39785156 21.80078125 16.22460938 C21.78402344 17.05798828 21.76726562 17.89136719 21.75 18.75 C21.74097656 19.59498047 21.73195313 20.43996094 21.72265625 21.31054688 C21.69910703 23.39465243 21.66323647 25.47861217 21.625 27.5625 C18.98041621 28.88479189 16.94738699 28.65927194 14 28.625 C12.99710937 28.61597656 11.99421875 28.60695313 10.9609375 28.59765625 C10.19007813 28.58605469 9.41921875 28.57445313 8.625 28.5625 C8.58761719 27.80324219 8.55023438 27.04398438 8.51171875 26.26171875 C8.44597656 25.26785156 8.38023437 24.27398437 8.3125 23.25 C8.25449219 22.26386719 8.19648438 21.27773437 8.13671875 20.26171875 C7.81269323 17.58481617 7.81269323 17.58481617 6.40625 15.75 C4.05547235 14.1828149 2.24230461 14.05713017 -0.5625 13.875 C-1.46355469 13.80925781 -2.36460937 13.74351563 -3.29296875 13.67578125 C-3.98003906 13.63839844 -4.66710937 13.60101563 -5.375 13.5625 C-6.30187325 16.34311975 -6.49693396 17.98301859 -6.48852539 20.8503418 C-6.48844986 21.71100754 -6.48837433 22.57167328 -6.48829651 23.4584198 C-6.48313522 24.38350845 -6.47797394 25.30859711 -6.47265625 26.26171875 C-6.47053383 27.68699638 -6.47053383 27.68699638 -6.46836853 29.1410675 C-6.46276875 32.17741029 -6.45021632 35.21367948 -6.4375 38.25 C-6.43248497 40.30794164 -6.42792207 42.36588444 -6.42382812 44.42382812 C-6.4127994 49.47008046 -6.39553493 54.51627775 -6.375 59.5625 C-2.085 59.5625 2.205 59.5625 6.625 59.5625 C6.769375 57.438125 6.91375 55.31375 7.0625 53.125 C7.5 46.6875 7.5 46.6875 8.625 45.5625 C10.62299572 45.46376184 12.62457158 45.43278201 14.625 45.4375 C15.718125 45.43492188 16.81125 45.43234375 17.9375 45.4296875 C20.625 45.5625 20.625 45.5625 21.625 46.5625 C22.47554409 61.31845103 22.47554409 61.31845103 19.625 67.5625 C15.1531074 72.15861184 10.15914829 73.61285047 3.875 73.8984375 C2.12511229 73.92215586 0.37504655 73.9349264 -1.375 73.9375 C-2.2515625 73.96199219 -3.128125 73.98648438 -4.03125 74.01171875 C-10.94355586 74.04294905 -14.29577903 72.27022468 -19.50585938 67.6887207 C-22.44845121 62.76710517 -21.94559342 57.88278008 -21.90625 52.25390625 C-21.9100769 51.05442856 -21.91390381 49.85495087 -21.91784668 48.61912537 C-21.92056621 46.08486084 -21.91320229 43.55056826 -21.89648438 41.01635742 C-21.87509622 37.1424275 -21.89627727 33.27035628 -21.921875 29.39648438 C-21.91923137 26.93228758 -21.91410566 24.46809194 -21.90625 22.00390625 C-21.91839539 20.26929893 -21.91839539 20.26929893 -21.93078613 18.49964905 C-21.86008153 12.41789567 -21.75945702 8.19820858 -17.375 3.5625 C-12.01280966 -0.56827935 -6.50410927 0.01123982 0 0 Z " fill="#35363A" transform="translate(303.375,62.4375)"/>
<path d="M0 0 C0.86044418 -0.00095673 1.72088837 -0.00191345 2.60740662 -0.00289917 C4.42731804 -0.00358015 6.2472319 -0.00173159 8.06713867 0.00244141 C10.86317354 0.00779733 13.65904823 0.0024903 16.45507812 -0.00390625 C18.22005244 -0.00324558 19.98502665 -0.00196465 21.75 0 C22.591642 -0.00202423 23.433284 -0.00404846 24.3004303 -0.00613403 C30.19363903 0.01785778 30.19363903 0.01785778 31.30859375 1.1328125 C31.45252832 5.46812168 31.35071436 9.79438981 31.30859375 14.1328125 C24.87359375 14.6278125 24.87359375 14.6278125 18.30859375 15.1328125 C17.97859375 34.6028125 17.64859375 54.0728125 17.30859375 74.1328125 C13.01859375 74.1328125 8.72859375 74.1328125 4.30859375 74.1328125 C3.30859375 73.1328125 3.30859375 73.1328125 3.18833923 70.77268982 C3.19055984 69.72678177 3.19278046 68.68087372 3.19506836 67.60327148 C3.19514389 66.42212265 3.19521942 65.24097382 3.19529724 64.02403259 C3.20045853 62.7386409 3.20561981 61.45324921 3.2109375 60.12890625 C3.21235245 58.82075455 3.2137674 57.51260284 3.21522522 56.16481018 C3.21904965 52.68118391 3.22887929 49.19759911 3.2399292 45.71398926 C3.25014493 42.16154542 3.25472319 38.60909491 3.25976562 35.05664062 C3.27050163 28.08201418 3.28757715 21.10741533 3.30859375 14.1328125 C1.91833984 14.15021484 1.91833984 14.15021484 0.5 14.16796875 C-0.69753906 14.17699219 -1.89507812 14.18601562 -3.12890625 14.1953125 C-4.32386719 14.20691406 -5.51882813 14.21851562 -6.75 14.23046875 C-9.69140625 14.1328125 -9.69140625 14.1328125 -10.69140625 13.1328125 C-10.76384678 11.11317051 -10.77517813 9.09114126 -10.75390625 7.0703125 C-10.74488281 5.96558594 -10.73585938 4.86085938 -10.7265625 3.72265625 C-10.71496094 2.86800781 -10.70335937 2.01335938 -10.69140625 1.1328125 C-7.36885074 -0.52846525 -3.65206196 -0.00880474 0 0 Z " fill="#36373A" transform="translate(447.69140625,61.8671875)"/>
<path d="M0 0 C2.64 0 5.28 0 8 0 C8 18.48 8 36.96 8 56 C26.81 56 45.62 56 65 56 C65 58.64 65 61.28 65 64 C43.55 64 22.1 64 0 64 C0 42.88 0 21.76 0 0 Z " fill="#FBFEFE" transform="translate(59,58)"/>
<path d="M0 0 C0.86625 0.00128906 1.7325 0.00257812 2.625 0.00390625 C5.47803727 0.52477325 6.21629257 1.19632916 8 3.4375 C8.3742218 5.34132385 8.3742218 5.34132385 8.37231445 7.51000977 C8.38165764 8.73126305 8.38165764 8.73126305 8.39118958 9.97718811 C8.38197983 10.8522551 8.37277008 11.72732208 8.36328125 12.62890625 C8.36377975 13.5299559 8.36427826 14.43100555 8.36479187 15.35935974 C8.36245198 17.26327725 8.35272845 19.16719788 8.33618164 21.07104492 C8.31256222 23.99230455 8.31562456 26.91265337 8.32226562 29.83398438 C8.31668982 31.68229713 8.30958056 33.53060603 8.30078125 35.37890625 C8.30214836 36.69454308 8.30214836 36.69454308 8.30354309 38.03675842 C8.23102945 44.20647055 8.23102945 44.20647055 6 46.4375 C3.1796875 46.6328125 3.1796875 46.6328125 -0.125 46.5625 C-1.22070312 46.54445312 -2.31640625 46.52640625 -3.4453125 46.5078125 C-4.28835937 46.48460937 -5.13140625 46.46140625 -6 46.4375 C-8.60935098 42.54197726 -8.30593143 38.38439308 -8.30078125 33.875 C-8.30506638 33.04669678 -8.3093515 32.21839355 -8.31376648 31.36499023 C-8.31950007 29.6167085 -8.3200172 27.86840292 -8.31567383 26.12011719 C-8.31251106 23.44685208 -8.33599391 20.77469108 -8.36132812 18.1015625 C-8.36360096 16.40104306 -8.36430469 14.70052065 -8.36328125 13 C-8.372491 12.20198975 -8.38170074 11.40397949 -8.39118958 10.58178711 C-8.36360601 7.27122459 -8.23481444 4.86537205 -6.62573242 1.93334961 C-4.3969771 -0.11734627 -2.9911087 -0.06676582 0 0 Z " fill="#F2F3F3" transform="translate(251,75.5625)"/>
<path d="M0 0 C2.64 0 5.28 0 8 0 C8 11.55 8 23.1 8 35 C19.55 35 31.1 35 43 35 C43 37.64 43 40.28 43 43 C28.81 43 14.62 43 0 43 C0 28.81 0 14.62 0 0 Z " fill="#FBFEFE" transform="translate(83,56)"/>
<path d="M0 0 C10 0 10 0 13 2 C13.37231445 4.3984375 13.37231445 4.3984375 13.36328125 7.375 C13.36263672 8.44234375 13.36199219 9.5096875 13.36132812 10.609375 C13.34521484 11.72828125 13.32910156 12.8471875 13.3125 14 C13.31572266 15.11890625 13.31894531 16.2378125 13.32226562 17.390625 C13.2668503 25.7331497 13.2668503 25.7331497 11 28 C7.37 28 3.74 28 0 28 C0 18.76 0 9.52 0 0 Z " fill="#FBFBFB" transform="translate(192,66)"/>
<path d="M0 0 C0.33 0 0.66 0 1 0 C1.01030746 0.67349991 1.02061493 1.34699982 1.03123474 2.04090881 C1.13960962 9.06536968 1.25418144 16.08971028 1.37231445 23.11401367 C1.41556416 25.73377968 1.45724609 28.35357207 1.49731445 30.97338867 C1.55525873 34.74405864 1.61888338 38.51459706 1.68359375 42.28515625 C1.70030624 43.45208511 1.71701874 44.61901398 1.73423767 45.82130432 C1.83359446 51.30398782 2.04092232 56.59708195 3 62 C10.38003676 62.04633108 17.76004218 62.08187308 25.14019489 62.10362434 C28.56706693 62.11406363 31.9938395 62.12822532 35.4206543 62.15087891 C39.35985119 62.17675686 43.29900774 62.18647162 47.23828125 62.1953125 C48.46960281 62.20563507 49.70092438 62.21595764 50.96955872 62.22659302 C52.11051498 62.22674408 53.25147125 62.22689514 54.42700195 62.22705078 C55.93590752 62.23371262 55.93590752 62.23371262 57.47529602 62.24050903 C60.24651848 62.17747815 60.24651848 62.17747815 63 60 C63.33 59.01 63.66 58.02 64 57 C45.85 57 27.7 57 9 57 C9 56.67 9 56.34 9 56 C27.48 56 45.96 56 65 56 C65 58.64 65 61.28 65 64 C43.55 64 22.1 64 0 64 C0 42.88 0 21.76 0 0 Z " fill="#C8E2FE" transform="translate(59,58)"/>
<path d="M0 0 C2.64 0 5.28 0 8 0 C8 11.55 8 23.1 8 35 C19.55 35 31.1 35 43 35 C43 37.64 43 40.28 43 43 C28.81 43 14.62 43 0 43 C0 28.81 0 14.62 0 0 Z M2 1 C0.92159207 5.37146095 0.85489203 9.6349233 0.8671875 14.109375 C0.86623077 14.87679016 0.86527405 15.64420532 0.86428833 16.43487549 C0.8636104 18.04854413 0.86543757 19.66221556 0.86962891 21.27587891 C0.87501215 23.75559522 0.86965583 26.23513282 0.86328125 28.71484375 C0.86394152 30.28385457 0.86522163 31.85286527 0.8671875 33.421875 C0.86516327 34.16661072 0.86313904 34.91134644 0.86105347 35.6786499 C0.5648947 39.12882358 0.5648947 39.12882358 2 42 C4.78821858 42.12584451 7.55032711 42.18866347 10.33984375 42.203125 C11.17713516 42.20882507 12.01442657 42.21452515 12.87709045 42.22039795 C14.65168997 42.22986154 16.42630716 42.23638731 18.20092773 42.24023438 C20.92267323 42.24994709 23.6436661 42.28095987 26.36523438 42.3125 C28.085933 42.31902899 29.80663704 42.32427987 31.52734375 42.328125 C32.34508774 42.3404718 33.16283173 42.3528186 34.00535583 42.36553955 C36.53919489 42.39067833 36.53919489 42.39067833 40 42 C42.2773501 39.18490007 42.2773501 39.18490007 42 36 C30.78 35.67 19.56 35.34 8 35 C7.67 23.78 7.34 12.56 7 1 C5.35 1 3.7 1 2 1 Z " fill="#DCF5FF" transform="translate(83,56)"/>
<path d="M0 0 C0.99 0.33 1.98 0.66 3 1 C3 1.99 3 2.98 3 4 C2.236875 4.04125 1.47375 4.0825 0.6875 4.125 C-2.31845769 4.75674092 -2.31845769 4.75674092 -3.5625 8 C-4.036875 8.99 -4.51125 9.98 -5 11 C-7.1875 11.875 -7.1875 11.875 -9 12 C-6.53974941 7.48954059 -3.39717963 3.81495577 0 0 Z " fill="#5D95EB" transform="translate(43,49)"/>
<path d="M0 0 C1.13199353 0.9080162 2.25532363 1.82683826 3.375 2.75 C4.00148437 3.26046875 4.62796875 3.7709375 5.2734375 4.296875 C7.08312318 6.08199481 8.00117455 7.67949644 9 10 C7.35 10 5.7 10 4 10 C3.67 9.34 3.34 8.68 3 8 C2.01 8.495 2.01 8.495 1 9 C1.33 7.02 1.66 5.04 2 3 C1.34 3 0.68 3 0 3 C0 2.01 0 1.02 0 0 Z " fill="#5690EA" transform="translate(128,46)"/>
<path d="M0 0 C1.32 0.33 2.64 0.66 4 1 C2.75482035 2.13033298 1.50363348 3.25405036 0.25 4.375 C-0.44609375 5.00148437 -1.1421875 5.62796875 -1.859375 6.2734375 C-3.84508688 7.87505183 -5.67954093 8.96520068 -8 10 C-8.33 9.01 -8.66 8.02 -9 7 C-7.68 7 -6.36 7 -5 7 C-4.34 5.35 -3.68 3.7 -3 2 C-2.01 2 -1.02 2 0 2 C0 1.34 0 0.68 0 0 Z " fill="#5D92E9" transform="translate(128,138)"/>
<path d="M0 0 C1 3 1 3 -0.36328125 5.8828125 C-1.00652344 6.95273438 -1.64976562 8.02265625 -2.3125 9.125 C-2.94800781 10.20007813 -3.58351562 11.27515625 -4.23828125 12.3828125 C-6 15 -6 15 -8 16 C-8 15.01 -8 14.02 -8 13 C-7.34 13 -6.68 13 -6 13 C-5.896875 12.278125 -5.79375 11.55625 -5.6875 10.8125 C-4.66272672 6.62024566 -2.37287483 3.55931224 0 0 Z " fill="#6093E4" transform="translate(145,116)"/>
<path d="M0 0 C0.33 0.66 0.66 1.32 1 2 C4.63 2 8.26 2 12 2 C12 2.33 12 2.66 12 3 C8.04 3.66 4.08 4.32 0 5 C-0.33 4.01 -0.66 3.02 -1 2 C-0.67 1.34 -0.34 0.68 0 0 Z " fill="#4B4C4F" transform="translate(244,120)"/>
<path d="M0 0 C0.66 0.33 1.32 0.66 2 1 C-0.12303556 4.18455334 -1.73495052 5.15817721 -5 7 C-5.33 7.33 -5.66 7.66 -6 8 C-7.66617115 8.04063832 -9.33388095 8.042721 -11 8 C-7.38813161 5.25498003 -3.69604737 2.62987986 0 0 Z " fill="#DDF3FE" transform="translate(126,143)"/>
<path d="M0 0 C2.35171131 0.59861742 4.6859378 1.26924352 7 2 C7.33 2.66 7.66 3.32 8 4 C6.68 4.33 5.36 4.66 4 5 C2.68 3.35 1.36 1.7 0 0 Z M7 0 C7.99 0.495 7.99 0.495 9 1 C8.01 1.495 8.01 1.495 7 2 C7 1.34 7 0.68 7 0 Z " fill="#5F97EF" transform="translate(43,138)"/>
<path d="M0 0 C0.99 0.33 1.98 0.66 3 1 C0.03 3.475 0.03 3.475 -3 6 C-3.66 5.34 -4.32 4.68 -5 4 C-2.6875 1.9375 -2.6875 1.9375 0 0 Z " fill="#E0F5FE" transform="translate(47,43)"/>
<path d="M0 0 C1.46726798 3.81489674 0.43336419 6.29011622 -1 10 C-3 7 -3 7 -3 4 C-2.34 4 -1.68 4 -1 4 C-0.67 2.68 -0.34 1.36 0 0 Z " fill="#5C90EB" transform="translate(148,106)"/>
</svg>
